<svg xmlns="http://www.w3.org/2000/svg" width="1024" height="1024" viewBox="0 0 1024 1024">
<g>
<path d="M 534.00 747.33 L 534.00 776.00 L 518.00 776.00 L 518.22 746.75 L 518.44 717.50 L 519.01 746.00 C519.32,761.67 519.67,774.61 519.79,774.75 C519.91,774.89 522.70,775.00 526.00,775.00 L 532.00 775.00 L 532.06 758.75 C532.14,739.08 532.84,719.82 533.51,719.16 C533.78,718.89 534.00,731.57 534.00,747.33 ZM 674.00 749.45 L 674.00 756.00 L 654.75 755.97 C641.44,755.95 636.03,755.63 637.21,754.94 C638.19,754.37 643.13,754.13 648.71,754.39 C654.10,754.63 661.82,754.57 665.88,754.26 L 673.26 753.68 L 672.67 747.38 C671.79,737.90 668.58,732.51 661.50,728.59 C658.86,727.13 658.80,727.00 661.00,727.57 C662.38,727.92 664.47,728.82 665.65,729.56 C667.83,730.94 672.64,737.00 671.54,737.00 C671.22,737.00 671.64,738.33 672.47,739.95 C673.39,741.71 674.00,745.54 674.00,749.45 ZM 313.00 731.00 C313.37,741.72 313.35,752.75 312.96,755.50 C312.57,758.25 312.27,749.49 312.29,736.00 L 312.34 711.50 Z" fill="rgb(17,21,29)"/>
<path d="M 481.63 776.40 C475.97,778.74 461.04,778.49 454.42,775.94 C449.94,774.22 441.34,768.00 443.44,768.00 C443.88,768.00 443.79,767.44 443.23,766.75 C440.28,763.11 438.19,751.26 439.31,744.50 C440.29,738.56 448.14,728.00 451.56,728.00 C452.35,728.00 453.00,727.50 453.00,726.89 C453.00,726.28 453.66,726.04 454.47,726.35 C455.28,726.66 456.16,726.54 456.44,726.09 C457.15,724.95 474.00,725.06 474.00,726.20 C474.00,726.72 474.90,726.85 476.00,726.50 C477.19,726.12 478.00,726.32 478.00,726.99 C478.00,727.61 478.45,727.84 479.00,727.50 C479.55,727.16 480.00,727.36 480.00,727.94 C480.00,728.52 480.57,729.00 481.28,729.00 C482.78,729.00 484.66,731.08 487.85,736.24 C489.48,738.90 490.32,742.13 490.71,747.38 C491.22,754.04 491.08,754.83 489.39,755.33 C488.35,755.63 480.30,755.87 471.50,755.86 C462.70,755.85 454.94,755.87 454.25,755.92 C451.92,756.07 452.99,759.57 456.50,763.29 C459.82,766.82 460.97,767.43 463.67,767.09 C464.32,767.01 465.13,767.41 465.48,767.97 C466.57,769.73 471.41,769.10 476.81,766.50 C479.66,765.12 482.29,764.00 482.66,764.00 C483.48,764.00 489.00,770.11 489.00,771.03 C489.00,772.26 485.53,774.79 481.63,776.40 ZM 663.48 776.01 C658.27,778.24 643.90,778.69 638.50,776.78 C631.55,774.33 622.00,764.63 622.00,760.02 C622.00,759.09 621.72,758.05 621.38,757.71 C619.28,755.61 622.63,735.00 625.07,735.00 C625.58,735.00 626.00,734.33 626.00,733.52 C626.00,732.71 627.91,731.07 630.25,729.89 C632.59,728.70 634.72,727.44 635.00,727.07 C635.28,726.71 636.76,726.32 638.30,726.21 C639.84,726.10 641.95,725.56 642.99,725.01 C645.39,723.72 651.73,723.70 652.17,724.97 C652.35,725.50 654.08,726.03 656.00,726.14 C658.88,726.32 661.65,727.23 664.12,728.74 C663.07,728.25 661.89,727.80 661.00,727.57 C658.80,727.00 658.86,727.13 661.50,728.59 C668.58,732.51 671.79,737.90 672.67,747.38 L 673.26 753.68 L 665.88 754.26 C661.82,754.57 654.10,754.63 648.71,754.39 C643.13,754.13 638.19,754.37 637.21,754.94 C636.03,755.63 641.44,755.95 654.75,755.97 L 674.00 756.00 L 654.50 756.00 C635.96,756.00 635.00,756.09 635.00,757.91 C635.00,760.95 641.36,766.75 646.09,768.03 C650.35,769.17 651.09,769.11 658.50,767.00 C666.70,764.67 666.91,764.67 668.96,767.13 C670.05,768.44 670.95,769.87 670.97,770.32 C671.03,771.83 668.17,774.00 663.48,776.01 ZM 346.50 765.50 L 346.50 775.50 L 322.25 775.77 L 298.00 776.04 L 298.01 743.27 C298.02,725.25 298.29,709.52 298.61,708.33 C299.13,706.38 299.98,706.12 306.60,705.83 L 314.00 705.50 L 314.00 735.23 L 314.00 764.95 ZM 534.00 746.50 C533.99,731.12 533.78,718.89 533.51,719.16 C532.84,719.82 532.14,739.08 532.06,758.75 L 532.00 775.00 L 526.00 775.00 C522.70,775.00 519.91,774.89 519.79,774.75 C519.67,774.61 519.32,761.67 519.01,746.00 L 518.44 717.50 L 518.22 746.75 L 518.00 776.00 L 518.00 717.07 L 506.75 716.78 L 495.50 716.50 L 495.20 711.24 L 494.89 705.97 L 525.20 706.24 L 555.50 706.50 L 555.63 710.50 C555.82,716.57 555.03,717.00 543.88,717.00 L 534.00 717.00 ZM 717.71 775.45 C713.17,777.59 710.97,777.98 703.90,777.90 C695.14,777.80 687.89,776.12 685.02,773.52 C683.17,771.85 682.74,769.00 684.33,769.00 C684.88,769.00 685.05,768.72 684.71,768.38 C684.37,768.04 684.64,767.23 685.30,766.58 C687.00,764.89 690.00,763.89 690.00,765.00 C690.00,765.52 690.67,765.68 691.50,765.36 C692.33,765.05 693.00,765.27 693.00,765.86 C693.00,766.45 693.67,766.68 694.50,766.36 C695.33,766.05 696.00,766.24 696.00,766.80 C696.00,767.36 696.85,767.59 697.89,767.32 C698.93,767.05 700.08,767.31 700.45,767.91 C701.84,770.17 712.44,767.92 711.97,765.48 C711.89,765.06 712.42,764.36 713.13,763.92 C715.92,762.19 704.04,756.00 697.94,756.00 C697.26,756.00 694.27,754.85 691.30,753.45 C684.26,750.12 681.92,744.80 684.03,736.92 C685.11,732.86 690.95,727.00 693.91,727.00 C695.00,727.00 696.15,726.57 696.47,726.04 C696.98,725.22 701.80,725.28 717.50,726.29 C718.60,726.36 719.95,726.79 720.50,727.24 C721.05,727.70 722.23,728.62 723.12,729.28 C724.39,730.24 724.55,731.19 723.86,733.69 C722.74,737.73 720.73,738.34 714.59,736.48 C711.89,735.67 707.27,735.00 704.32,735.00 C699.54,735.00 698.83,735.28 697.79,737.55 C696.77,739.81 696.94,740.39 699.33,742.60 C700.81,743.98 702.52,744.80 703.12,744.42 C703.73,744.05 704.56,744.29 704.98,744.97 C705.40,745.64 707.37,746.24 709.37,746.29 C711.37,746.35 713.00,746.74 713.00,747.17 C713.00,747.59 713.67,747.68 714.50,747.36 C715.33,747.05 716.00,747.31 716.00,747.95 C716.00,748.59 716.45,748.84 717.00,748.50 C717.55,748.16 718.00,748.39 718.00,749.00 C718.00,749.61 718.38,749.88 718.84,749.60 C719.30,749.31 721.22,750.66 723.09,752.60 C726.25,755.86 726.49,756.57 726.39,762.17 C726.32,765.49 725.84,768.50 725.31,768.86 C724.79,769.21 724.07,770.26 723.73,771.20 C723.39,772.13 720.67,774.04 717.71,775.45 ZM 417.88 771.75 L 416.07 776.00 L 407.79 775.98 C398.87,775.97 397.69,775.58 397.15,772.50 C396.96,771.40 396.51,770.28 396.15,770.00 C395.79,769.72 395.34,768.60 395.15,767.50 C394.96,766.40 394.36,765.22 393.81,764.89 C393.27,764.55 392.90,763.88 392.99,763.39 C393.24,762.04 390.77,755.00 390.05,755.00 C389.71,755.00 389.35,754.03 389.26,752.84 C389.17,751.65 388.74,750.41 388.30,750.09 C387.86,749.77 387.34,748.60 387.15,747.50 C386.96,746.40 386.28,745.17 385.65,744.77 C385.02,744.36 384.85,744.02 385.29,744.02 C385.72,744.01 385.51,742.99 384.83,741.75 C384.15,740.51 383.45,738.62 383.27,737.54 C383.10,736.47 382.47,735.29 381.89,734.93 C381.31,734.57 380.87,733.99 380.91,733.64 C380.96,733.29 380.96,732.89 380.92,732.75 C380.87,732.61 380.63,731.26 380.38,729.75 L 379.93 727.00 L 386.85 727.00 C393.69,727.00 393.79,727.04 395.27,730.25 C396.09,732.04 397.99,737.33 399.51,742.00 C403.23,753.52 406.80,761.23 408.20,760.77 C409.53,760.32 413.11,750.44 412.25,749.58 C411.93,749.26 412.24,749.00 412.94,749.00 C413.64,749.00 413.97,748.35 413.66,747.56 C413.36,746.78 413.52,745.99 414.03,745.81 C414.53,745.64 415.15,744.38 415.40,743.00 C415.65,741.62 415.94,740.39 416.05,740.25 C416.16,740.11 416.36,739.55 416.50,739.00 C416.64,738.45 416.86,737.78 417.00,737.50 C417.14,737.22 417.36,736.55 417.50,736.00 C417.64,735.45 417.86,734.78 418.00,734.50 C418.14,734.22 418.31,733.66 418.39,733.25 C418.47,732.84 418.89,731.94 419.32,731.25 C419.76,730.56 419.80,730.00 419.41,730.00 C419.01,730.00 419.75,729.08 421.04,727.97 C422.33,726.85 424.01,726.17 424.77,726.47 C425.54,726.76 427.98,727.00 430.20,727.00 C434.05,727.00 434.20,727.12 433.73,729.75 C433.07,733.39 429.67,742.47 428.33,744.16 C427.75,744.90 427.04,746.62 426.75,748.00 C426.05,751.41 422.66,760.38 421.83,761.01 C421.46,761.29 420.83,762.87 420.42,764.51 C420.02,766.15 418.87,769.41 417.88,771.75 ZM 610.00 706.00 L 610.00 776.00 L 596.00 776.00 L 596.00 706.00 ZM 369.96 774.07 C369.12,775.64 367.84,776.00 363.13,776.00 C359.94,776.00 357.03,775.70 356.67,775.33 C356.30,774.97 356.00,764.00 356.00,750.96 L 356.00 727.26 L 360.88 726.61 C363.57,726.25 366.95,726.41 368.38,726.96 L 371.00 727.95 L 371.00 750.04 C371.00,763.36 370.59,772.90 369.96,774.07 ZM 580.98 774.03 C580.10,775.68 578.87,776.00 573.46,776.00 L 567.00 776.00 L 567.00 726.91 L 581.50 727.50 L 581.77 749.78 C581.94,764.01 581.66,772.77 580.98,774.03 ZM 637.67 747.24 C642.83,747.75 660.32,746.90 661.22,746.10 C662.15,745.27 661.03,741.00 659.88,741.00 C659.40,741.00 659.00,740.33 659.00,739.51 C659.00,737.33 652.54,735.00 646.50,735.00 C641.90,735.00 640.84,735.40 638.12,738.19 C636.40,739.94 635.00,741.93 635.00,742.61 C635.00,743.28 634.74,744.52 634.42,745.35 C633.97,746.51 634.74,746.96 637.67,747.24 ZM 452.00 745.40 C452.00,746.79 453.79,747.00 465.41,747.00 C479.31,747.00 479.49,746.94 477.96,743.00 C477.85,742.72 477.82,742.16 477.88,741.75 C477.95,741.34 477.55,741.00 477.00,741.00 C476.45,741.00 476.11,740.47 476.25,739.81 C476.98,736.35 463.12,733.62 457.60,736.14 C455.09,737.28 452.00,742.40 452.00,745.40 ZM 580.08 715.08 C574.31,720.85 565.97,717.58 565.47,709.35 C565.30,706.62 565.85,705.06 567.60,703.31 C570.20,700.71 576.00,699.03 576.00,700.88 C576.00,701.49 576.60,702.00 577.33,702.00 C579.57,702.00 583.00,706.47 583.00,709.39 C583.00,711.11 581.90,713.26 580.08,715.08 ZM 370.20 715.31 C364.30,720.96 355.48,717.27 355.71,709.25 C355.86,703.99 359.91,700.59 365.19,701.30 C372.72,702.31 375.54,710.19 370.20,715.31 ZM 313.00 731.00 L 312.34 711.50 L 312.29 736.00 C312.27,749.49 312.57,758.25 312.96,755.50 C313.35,752.75 313.37,741.72 313.00,731.00 ZM 673.87 746.26 C673.64,743.57 673.13,741.22 672.47,739.95 C671.64,738.33 671.22,737.00 671.54,737.00 C671.58,737.00 671.61,736.99 671.64,736.98 C672.11,737.91 672.52,738.88 672.86,739.90 C673.29,741.19 673.67,743.69 673.87,746.26 Z" fill="rgb(45,58,79)"/>
<path d="M 442.08 369.58 C441.85,369.81 408.89,370.00 368.83,370.00 L 296.00 370.00 L 296.00 337.50 C296.00,317.13 296.36,305.00 296.97,305.00 C297.51,305.00 300.77,307.87 304.22,311.38 C307.67,314.89 313.42,319.60 317.00,321.86 C320.58,324.11 324.04,326.42 324.71,326.98 C325.37,327.54 327.87,328.00 330.26,328.00 C332.65,328.00 335.16,328.56 335.85,329.25 C336.73,330.13 340.57,330.45 348.80,330.32 C362.12,330.13 370.87,327.65 377.89,322.09 C380.05,320.38 383.17,318.41 384.83,317.71 C389.62,315.70 395.36,308.31 401.74,295.94 C407.27,285.21 407.71,283.83 408.86,273.77 C409.58,267.39 409.80,259.39 409.39,254.01 C408.82,246.37 408.34,244.58 406.28,242.35 C404.87,240.83 404.04,238.96 404.31,237.91 C404.60,236.80 404.16,235.94 403.14,235.67 C402.24,235.43 409.66,235.18 419.63,235.12 C433.20,235.03 438.03,234.67 438.84,233.70 C439.72,232.63 436.14,232.43 419.21,232.60 C402.89,232.76 400.51,232.64 408.00,232.02 C413.23,231.58 423.01,231.17 429.74,231.11 L 441.97 231.00 L 442.24 300.08 C442.38,338.08 442.31,369.35 442.08,369.58 ZM 462.00 368.13 C462.00,368.61 458.40,369.00 454.00,369.00 C447.56,369.00 446.00,368.71 446.00,367.50 C446.00,366.40 447.13,366.00 450.25,366.01 C456.12,366.03 462.00,367.09 462.00,368.13 Z" fill="rgb(73,168,235)"/>
<path d="M 680.80 609.80 C679.50,611.10 630.94,611.61 629.67,610.33 C629.30,609.97 629.00,606.16 629.00,601.87 L 629.00 594.08 L 620.75 593.79 L 612.50 593.50 L 612.21 585.21 L 611.92 576.91 L 619.71 577.21 L 627.50 577.50 L 627.75 582.50 C627.89,585.25 628.25,588.97 628.55,590.77 L 629.10 594.03 L 655.30 593.77 L 681.50 593.50 L 681.79 585.25 L 682.08 577.00 L 691.28 577.00 C696.18,577.00 698.69,577.00 699.92,578.25 C701.20,579.57 701.07,582.25 700.82,587.76 L 700.80 588.03 L 700.50 594.50 L 682.00 595.08 L 682.00 601.84 C682.00,605.76 681.50,609.10 680.80,609.80 ZM 681.80 560.80 C680.53,562.07 665.86,562.53 664.67,561.33 C664.30,560.97 664.00,556.92 664.00,552.33 L 664.00 544.00 L 672.29 544.00 C678.14,544.00 680.79,544.00 682.00,545.32 C683.00,546.42 683.00,548.44 683.00,552.13 L 683.00 552.41 C683.00,556.67 682.51,560.09 681.80,560.80 ZM 645.50 544.50 L 645.50 561.50 L 637.45 561.79 C633.03,561.95 629.09,561.76 628.70,561.37 C628.32,560.98 628.00,556.90 628.00,552.29 L 628.00 543.92 Z" fill="rgb(97,66,36)"/>
<path d="M 296.97 305.00 C296.37,305.00 296.01,316.93 296.00,337.00 C296.00,317.15 296.37,304.00 296.94,304.00 C297.45,304.00 300.71,305.93 304.19,308.30 C316.53,316.70 322.68,319.92 330.54,322.08 C337.88,324.10 339.28,324.18 348.50,323.14 C359.01,321.96 364.01,320.55 371.99,316.50 C378.04,313.44 389.00,304.41 389.00,302.50 C389.00,301.71 389.88,300.60 390.96,300.02 C394.01,298.39 399.80,287.10 402.00,278.49 C404.13,270.19 404.45,261.00 402.92,252.00 L 402.79 251.19 C401.13,241.41 400.74,239.07 401.69,238.20 C402.01,237.90 402.49,237.78 403.14,237.59 C403.69,237.42 404.11,237.29 404.40,237.18 C404.41,237.41 404.38,237.66 404.31,237.91 C404.04,238.96 404.87,240.83 406.28,242.35 C408.34,244.58 408.82,246.37 409.39,254.01 C409.80,259.39 409.58,267.39 408.86,273.77 C407.71,283.83 407.27,285.21 401.74,295.94 C395.36,308.31 389.62,315.70 384.83,317.71 C383.17,318.41 380.05,320.38 377.89,322.09 C370.87,327.65 362.12,330.13 348.80,330.32 C340.57,330.45 336.73,330.13 335.85,329.25 C335.16,328.56 332.65,328.00 330.26,328.00 C327.87,328.00 325.37,327.54 324.71,326.98 C324.04,326.42 320.58,324.11 317.00,321.86 C313.42,319.60 307.67,314.89 304.22,311.38 C300.77,307.87 297.51,305.00 296.97,305.00 ZM 441.93 440.25 L 442.00 506.00 L 370.17 506.00 C330.66,506.00 298.03,505.70 297.67,505.33 C296.44,504.11 296.98,502.78 298.47,503.35 C299.28,503.66 300.20,503.48 300.53,502.96 C300.89,502.36 326.69,502.00 368.44,502.00 C423.41,502.00 435.96,501.75 436.86,500.66 C437.64,499.72 438.06,480.78 438.26,436.91 C438.42,402.56 438.95,373.63 439.45,372.57 C440.34,370.67 440.36,370.67 441.10,372.57 C441.52,373.63 441.89,404.09 441.93,440.25 ZM 407.60 235.32 C410.39,235.18 414.47,235.09 419.63,235.07 C429.67,235.03 434.90,234.84 437.29,234.34 C434.89,234.84 429.64,235.05 419.63,235.12 C414.80,235.15 410.58,235.22 407.60,235.32 ZM 404.09 236.28 C403.92,236.20 403.72,236.11 403.50,236.01 C403.31,235.93 403.29,235.85 403.45,235.77 C403.72,235.89 403.93,236.06 404.09,236.28 Z" fill="rgb(68,154,125)"/>
<path d="M 441.93 440.25 C441.89,404.09 441.52,373.63 441.10,372.57 C440.36,370.67 440.34,370.67 439.45,372.57 C438.95,373.63 438.42,402.56 438.26,436.91 C438.06,480.78 437.64,499.72 436.86,500.66 C435.96,501.75 423.41,502.00 368.44,502.00 C326.69,502.00 300.89,502.36 300.53,502.96 C300.20,503.48 299.28,503.66 298.47,503.35 C296.98,502.78 296.44,504.11 297.67,505.33 C298.03,505.70 330.01,505.99 368.99,506.00 L 296.00 506.00 L 296.00 403.90 C296.00,305.80 295.93,301.70 294.13,299.15 C290.44,293.91 288.11,288.29 288.64,285.90 C289.00,284.29 288.87,283.92 288.26,284.78 C287.63,285.66 287.31,285.04 287.23,282.78 C287.16,280.98 286.81,275.00 286.45,269.50 C285.65,257.22 286.90,249.84 291.37,240.50 C295.66,231.55 302.62,223.44 304.61,225.09 C305.38,225.73 306.00,226.72 306.00,227.29 C306.00,227.87 306.70,229.12 307.56,230.07 C310.01,232.77 311.97,241.73 312.04,250.50 C312.08,254.90 312.67,261.65 313.36,265.50 C314.60,272.39 319.04,281.70 321.56,282.66 C322.25,282.93 323.08,284.16 323.39,285.41 C323.70,286.66 325.97,289.84 328.44,292.49 C332.28,296.61 333.15,297.12 334.49,296.01 C335.35,295.30 336.34,295.00 336.69,295.36 C337.04,295.71 336.81,296.00 336.17,296.00 C334.33,296.00 334.80,300.51 336.83,302.35 C338.88,304.20 341.18,304.45 343.76,303.08 C344.72,302.58 349.55,301.43 354.50,300.53 C364.18,298.77 373.51,295.66 381.50,291.52 C386.34,289.01 393.15,281.28 394.71,276.51 C395.07,275.42 396.55,272.25 398.02,269.47 C401.47,262.90 402.55,254.25 400.51,249.37 C399.68,247.38 399.00,244.71 399.00,243.44 C399.00,242.16 398.59,240.87 398.09,240.56 C397.60,240.25 396.54,238.09 395.74,235.75 L 394.29 231.50 L 418.14 231.22 L 441.99 230.95 L 442.24 299.22 C442.38,336.78 442.38,398.66 442.24,436.75 L 441.99 500.44 ZM 442.08 369.58 C442.31,369.35 442.38,338.08 442.24,300.08 L 441.97 231.00 L 429.74 231.11 C423.01,231.17 413.23,231.58 408.00,232.02 C400.51,232.64 402.89,232.76 419.21,232.60 C424.74,232.54 428.85,232.53 431.84,232.57 C427.42,232.81 420.08,232.99 413.25,232.99 C403.09,233.00 397.00,233.37 397.00,234.00 C397.00,234.63 404.46,235.00 417.38,235.00 C424.20,235.00 428.81,234.97 431.97,234.85 C429.05,234.98 425.03,235.05 419.63,235.07 C414.47,235.09 410.39,235.18 407.60,235.32 C404.43,235.42 402.68,235.54 403.14,235.67 C403.25,235.70 403.35,235.73 403.45,235.77 C403.29,235.85 403.31,235.93 403.50,236.01 C403.72,236.11 403.92,236.20 404.09,236.28 C404.28,236.52 404.38,236.83 404.40,237.18 C404.11,237.29 403.69,237.42 403.14,237.59 C402.49,237.78 402.01,237.90 401.69,238.20 C400.74,239.07 401.13,241.41 402.79,251.19 L 402.92 252.00 C404.45,261.00 404.13,270.19 402.00,278.49 C399.80,287.10 394.01,298.39 390.96,300.02 C389.88,300.60 389.00,301.71 389.00,302.50 C389.00,304.41 378.04,313.44 371.99,316.50 C364.01,320.55 359.01,321.96 348.50,323.14 C339.28,324.18 337.88,324.10 330.54,322.08 C322.68,319.92 316.53,316.70 304.19,308.30 C300.71,305.93 297.45,304.00 296.94,304.00 C296.37,304.00 296.00,317.15 296.00,337.00 C296.00,337.17 296.00,337.33 296.00,337.50 L 296.00 370.00 L 368.83 370.00 C408.89,370.00 441.85,369.81 442.08,369.58 ZM 299.39 436.65 C299.34,472.12 299.67,500.55 300.13,499.82 C300.59,499.10 300.98,471.42 300.98,438.33 C300.99,405.24 301.27,377.45 301.61,376.58 C302.15,375.16 309.02,375.00 368.86,374.98 C429.72,374.97 443.10,374.50 435.65,372.63 C434.25,372.27 403.04,372.02 366.30,372.06 L 299.50 372.14 ZM 436.89 234.42 C437.96,234.21 438.54,233.92 438.94,233.54 C438.91,233.59 438.88,233.64 438.84,233.70 C438.63,233.95 438.14,234.17 437.29,234.34 C437.16,234.37 437.03,234.39 436.89,234.42 Z" fill="rgb(109,198,118)"/>
<path d="M 299.39 436.65 L 299.50 372.14 L 366.30 372.06 C403.04,372.02 434.25,372.27 435.65,372.63 C443.10,374.50 429.72,374.97 368.86,374.98 C309.02,375.00 302.15,375.16 301.61,376.58 C301.27,377.45 300.99,405.24 300.98,438.33 C300.98,471.42 300.59,499.10 300.13,499.82 C299.67,500.55 299.34,472.12 299.39,436.65 ZM 339.25 303.75 C338.41,303.51 337.60,303.04 336.83,302.35 C335.62,301.25 334.97,299.21 335.02,297.73 C335.17,298.45 335.96,299.00 336.91,299.00 C338.32,299.00 338.76,298.39 338.57,296.65 C338.42,295.36 337.99,293.79 337.60,293.17 C337.16,292.45 337.42,292.22 338.29,292.56 C339.05,292.85 340.29,292.36 341.03,291.47 C342.16,290.10 342.14,289.71 340.94,288.96 C339.94,288.35 339.29,288.60 338.82,289.79 C338.30,291.10 338.13,291.15 338.09,290.00 C338.06,289.17 338.47,287.83 339.00,287.00 C339.65,286.00 339.97,285.92 339.98,286.75 C339.99,287.44 340.40,288.00 340.89,288.00 C341.39,288.00 341.72,286.88 341.64,285.50 C341.56,284.13 341.19,283.00 340.80,283.00 C340.42,283.00 340.69,281.31 341.40,279.25 C343.44,273.31 349.12,271.48 356.25,274.46 C358.17,275.26 360.03,275.64 360.37,275.29 C360.72,274.95 361.00,275.12 361.00,275.67 C361.00,276.22 360.66,277.00 360.25,277.42 C359.84,277.83 359.50,278.54 359.50,278.99 C359.50,279.44 358.38,280.94 357.00,282.32 C355.62,283.70 352.48,287.44 350.00,290.64 C347.52,293.84 343.87,298.15 341.87,300.23 C339.81,302.37 339.02,303.35 339.25,303.75 ZM 304.78 225.24 C304.73,225.19 304.67,225.14 304.61,225.09 C303.32,224.02 299.94,227.06 296.55,231.76 C296.64,231.48 296.61,231.18 296.46,230.94 C295.48,229.34 309.34,216.67 316.21,212.88 C323.44,208.91 332.52,206.46 344.00,205.39 C356.73,204.20 361.55,205.19 374.19,211.60 C378.97,214.02 394.32,228.35 393.27,229.40 C393.01,229.66 389.81,226.94 386.15,223.37 C366.48,204.14 333.62,201.34 311.61,217.03 C306.01,221.02 304.27,222.19 304.20,223.46 C304.17,223.97 304.41,224.50 304.78,225.24 ZM 296.06 232.45 C294.39,234.85 292.74,237.63 291.37,240.50 C286.90,249.84 285.65,257.22 286.45,269.50 C286.81,275.00 287.16,280.98 287.23,282.78 C287.31,285.04 287.63,285.66 288.26,284.78 C288.87,283.92 289.00,284.29 288.64,285.90 C288.34,287.25 288.95,289.62 290.20,292.38 C288.45,288.96 286.91,285.52 286.72,284.28 C286.57,283.30 286.16,282.05 285.82,281.50 C284.57,279.51 283.00,268.49 283.12,262.57 C283.23,256.93 284.61,248.64 284.88,252.00 C284.95,252.82 287.22,248.94 289.92,243.36 C292.62,237.78 295.33,232.92 295.93,232.54 C295.98,232.51 296.02,232.48 296.06,232.45 ZM 423.00 234.00 C423.00,234.46 424.96,234.82 427.89,234.95 C425.15,234.99 421.71,235.00 417.38,235.00 C404.46,235.00 397.00,234.63 397.00,234.00 C397.00,233.37 403.09,233.00 413.25,232.99 C420.08,232.99 427.42,232.81 431.84,232.57 C432.11,232.57 432.37,232.58 432.62,232.58 C430.15,232.82 427.59,232.99 426.25,232.99 C424.46,233.00 423.00,233.45 423.00,234.00 ZM 590.00 508.94 C590.00,510.20 588.44,511.11 587.64,510.31 C586.51,509.18 586.95,508.00 588.50,508.00 C589.33,508.00 590.00,508.42 590.00,508.94 ZM 284.33 262.50 C284.32,266.35 284.50,268.05 284.72,266.27 C284.94,264.50 284.95,261.35 284.73,259.27 C284.51,257.20 284.33,258.65 284.33,262.50 ZM 310.80 238.53 C309.99,234.61 308.84,231.48 307.56,230.07 C306.82,229.25 306.20,228.21 306.04,227.57 C306.65,228.60 307.31,229.58 307.77,230.15 C308.95,231.58 310.02,234.70 310.80,238.53 ZM 340.90 303.94 C341.87,303.81 343.02,303.47 343.76,303.08 C342.77,303.61 341.82,303.89 340.90,303.94 ZM 293.90 298.82 C293.98,298.93 294.05,299.04 294.13,299.15 C294.45,299.60 294.71,300.10 294.93,301.15 C294.71,300.10 294.45,299.60 294.13,299.15 C294.05,299.05 293.98,298.94 293.90,298.82 ZM 335.54 296.24 C335.71,296.08 335.92,296.00 336.17,296.00 C335.94,296.00 335.72,296.09 335.54,296.24 Z" fill="rgb(188,225,171)"/>
<path d="M 339.25 303.75 C339.02,303.35 339.81,302.37 341.87,300.23 C343.87,298.15 347.52,293.84 350.00,290.64 C352.48,287.44 355.62,283.70 357.00,282.32 C358.38,280.94 359.50,279.44 359.50,278.99 C359.50,278.54 359.84,277.83 360.25,277.42 C360.66,277.00 361.00,276.22 361.00,275.67 C361.00,275.12 360.72,274.95 360.37,275.29 C360.06,275.61 358.50,275.33 356.78,274.67 C360.44,275.72 362.44,274.91 364.05,271.91 C364.98,270.18 365.38,270.07 366.76,271.19 C367.67,271.92 368.08,272.00 367.70,271.35 C367.32,270.72 367.76,269.92 368.67,269.57 C369.90,269.10 370.04,268.64 369.22,267.82 C368.40,267.00 368.88,265.76 371.05,263.12 C375.76,257.42 375.29,257.00 364.14,257.00 C354.50,257.00 354.28,256.95 354.51,254.75 C354.64,253.51 354.86,252.39 355.00,252.25 C355.14,252.11 355.36,251.55 355.50,251.00 C355.64,250.45 355.86,249.77 356.00,249.50 C356.14,249.23 356.36,248.55 356.50,248.00 C356.64,247.45 356.84,246.89 356.95,246.75 C357.06,246.61 357.30,245.72 357.49,244.76 C357.67,243.80 358.80,240.00 359.99,236.30 C362.08,229.82 362.10,229.54 360.33,228.21 C358.02,226.46 347.53,227.32 345.42,229.43 C344.63,230.23 342.48,233.72 340.65,237.19 C338.81,240.66 334.06,249.69 330.08,257.25 L 322.84 270.99 L 325.49 272.00 C326.94,272.55 331.48,273.00 335.57,273.00 C339.65,273.00 343.00,273.39 343.00,273.86 C343.00,274.25 344.23,274.26 345.89,273.92 C343.83,274.89 342.28,276.69 341.40,279.25 C340.69,281.31 340.42,283.00 340.80,283.00 C341.19,283.00 341.56,284.13 341.64,285.50 C341.47,282.57 340.00,282.08 340.00,284.96 C340.00,285.25 339.94,285.67 339.83,286.19 C339.67,286.12 339.39,286.39 339.00,287.00 C338.47,287.83 338.06,289.17 338.09,290.00 C338.13,291.08 338.28,291.10 338.73,290.00 C338.51,290.67 338.26,291.34 338.00,292.00 C337.94,292.14 337.89,292.28 337.83,292.42 C337.36,292.34 337.26,292.58 337.57,293.11 C337.26,293.93 336.98,294.71 336.74,295.41 C336.73,295.39 336.71,295.38 336.69,295.36 C336.34,295.00 335.35,295.30 334.49,296.01 C333.15,297.12 332.28,296.61 328.44,292.49 C325.97,289.84 323.70,286.66 323.39,285.41 C323.08,284.16 322.25,282.93 321.56,282.66 C319.04,281.70 314.60,272.39 313.36,265.50 C312.67,261.65 312.08,254.90 312.04,250.50 C312.01,246.32 311.54,242.10 310.80,238.53 C310.02,234.70 308.95,231.58 307.77,230.15 C307.31,229.58 306.65,228.60 306.04,227.57 C306.01,227.46 306.00,227.37 306.00,227.29 C306.00,226.76 305.47,225.87 304.78,225.24 C304.41,224.50 304.17,223.97 304.20,223.46 C304.27,222.19 306.01,221.02 311.61,217.03 C333.62,201.34 366.48,204.14 386.15,223.37 C389.81,226.94 393.01,229.66 393.27,229.40 C394.20,228.47 382.36,217.21 376.27,212.91 C380.60,215.59 384.42,218.85 388.75,223.39 L 396.48 231.47 L 394.29 231.50 L 395.74 235.75 C396.54,238.09 397.60,240.25 398.09,240.56 C398.59,240.87 399.00,242.16 399.00,243.44 C399.00,244.71 399.68,247.38 400.51,249.37 C402.55,254.25 401.47,262.90 398.02,269.47 C396.55,272.25 395.07,275.42 394.71,276.51 C393.15,281.28 386.34,289.01 381.50,291.52 C373.51,295.66 364.18,298.77 354.50,300.53 C349.55,301.43 344.72,302.58 343.76,303.08 C342.77,303.61 341.82,303.89 340.90,303.94 C340.34,303.97 339.79,303.91 339.25,303.75 ZM 335.54 296.24 C335.72,296.09 335.94,296.00 336.17,296.00 C336.32,296.00 336.45,295.98 336.56,295.95 C336.21,297.00 336.00,297.78 336.00,298.04 C336.00,298.52 336.53,298.92 337.21,298.99 C337.11,299.00 337.02,299.00 336.91,299.00 C335.96,299.00 335.17,298.45 335.02,297.73 C335.05,297.07 335.22,296.53 335.54,296.24 ZM 360.84 206.05 C355.86,204.74 351.19,204.71 344.00,205.39 C352.40,204.60 356.17,204.66 360.84,206.05 ZM 441.99 230.89 L 441.99 230.95 L 418.14 231.22 L 411.34 231.30 L 419.24 231.20 ZM 341.73 290.47 C341.60,290.74 341.37,291.06 341.03,291.47 C340.68,291.89 340.23,292.22 339.76,292.42 C339.95,292.22 340.15,292.02 340.37,291.84 C341.08,291.24 341.53,290.81 341.73,290.47 ZM 340.79 287.99 C341.34,287.82 341.72,286.76 341.64,285.50 C341.72,286.88 341.39,288.00 340.89,288.00 C340.86,288.00 340.83,288.00 340.79,287.99 ZM 338.55 296.48 C338.55,296.54 338.56,296.60 338.57,296.65 C338.67,297.60 338.59,298.21 338.27,298.57 C338.54,298.16 338.64,297.47 338.55,296.48 ZM 340.74 288.85 C340.81,288.88 340.87,288.92 340.94,288.96 C341.48,289.30 341.79,289.56 341.85,289.88 C341.77,289.61 341.48,289.35 341.00,289.04 C340.91,288.97 340.82,288.91 340.74,288.85 Z" fill="rgb(151,209,77)"/>
<path d="M 462.00 368.13 C462.00,367.09 456.12,366.03 450.25,366.01 C447.13,366.00 446.00,366.40 446.00,367.50 C446.00,368.45 446.97,368.84 450.55,368.96 L 442.50 368.98 L 442.24 437.49 L 442.00 503.14 L 441.99 500.44 L 442.24 436.75 C442.38,398.66 442.38,336.78 442.24,299.22 L 441.99 231.18 L 490.15 231.08 L 584.01 230.88 L 583.50 368.50 L 513.00 368.74 L 457.07 368.93 C459.96,368.80 462.00,368.49 462.00,368.13 ZM 443.68 235.18 C448.13,236.04 580.00,234.89 580.00,233.99 C580.00,233.35 555.69,233.00 511.00,233.00 C469.31,233.00 442.00,233.37 442.00,233.93 C442.00,234.44 442.75,235.00 443.68,235.18 ZM 436.89 234.42 C435.79,234.61 434.20,234.75 431.97,234.85 C430.82,234.89 429.47,234.92 427.89,234.95 C424.96,234.82 423.00,234.46 423.00,234.00 C423.00,233.45 424.46,233.00 426.25,232.99 C427.59,232.99 430.15,232.82 432.62,232.58 C437.70,232.67 439.19,232.96 438.94,233.54 C438.54,233.92 437.96,234.21 436.89,234.42 ZM 416.58 231.23 L 411.34 231.30 L 396.48 231.47 L 396.28 231.27 Z" fill="rgb(157,145,253)"/>
<path d="M 442.26 505.74 L 442.02 642.50 L 373.26 642.71 L 370.22 642.72 C308.34,642.92 301.48,642.94 298.97,639.64 C298.62,639.18 298.35,638.65 298.03,638.05 C296.47,635.15 296.79,633.35 298.47,635.56 C299.28,636.63 299.95,637.14 299.97,636.69 C299.99,636.25 301.00,636.59 302.22,637.44 C304.18,638.81 312.35,639.00 370.62,639.00 L 436.80 639.00 L 437.30 576.25 C437.58,541.74 438.13,512.27 438.52,510.76 C438.91,509.26 439.69,508.31 440.24,508.65 C440.80,509.00 441.05,508.65 440.80,507.89 C440.41,506.72 428.70,506.46 368.17,506.24 L 299.70 506.00 L 368.97 506.00 L 368.99 506.00 L 370.17 506.00 L 442.00 506.00 L 442.00 503.14 L 442.24 437.49 L 442.50 368.98 ZM 700.75 506.04 C685.21,506.06 654.95,506.20 633.50,506.36 C592.74,506.67 586.00,506.47 586.00,504.99 C586.00,502.42 596.05,502.01 659.25,502.01 L 725.00 502.00 L 725.00 438.94 C725.00,404.26 725.34,376.09 725.75,376.35 C726.16,376.60 726.57,375.68 726.65,374.30 C726.73,372.93 727.30,371.30 727.90,370.70 C728.70,369.90 729.00,388.22 729.00,437.80 L 729.00 506.00 ZM 720.57 642.53 C719.43,642.79 688.83,643.12 652.56,643.25 C585.81,643.50 581.80,643.31 583.00,639.92 C583.28,639.14 583.72,609.92 584.00,575.00 L 584.49 511.50 L 585.00 576.00 L 585.50 640.50 L 587.75 640.82 C588.99,641.00 590.00,640.66 590.00,640.07 C590.00,639.32 609.78,639.00 655.93,639.00 C711.31,639.00 722.08,638.77 723.27,637.59 C724.15,636.71 725.19,636.50 726.06,637.03 C727.16,637.71 726.95,638.31 725.03,639.97 C723.71,641.12 721.70,642.27 720.57,642.53 ZM 729.00 571.50 C729.00,606.97 728.82,636.00 728.61,636.00 C727.26,636.00 726.98,627.41 726.78,579.67 C726.64,543.64 726.38,532.79 725.99,546.00 L 725.41 565.50 L 725.26 537.23 C725.17,519.76 725.48,509.18 726.06,509.54 C726.58,509.86 727.00,509.42 727.00,508.56 C727.00,507.70 727.45,507.00 728.00,507.00 C728.66,507.00 729.00,529.17 729.00,571.50 ZM 365.15 270.51 C368.68,266.29 373.09,260.43 373.87,258.66 C373.87,259.57 372.83,260.97 371.05,263.12 C368.88,265.76 368.40,267.00 369.22,267.82 C370.04,268.64 369.90,269.10 368.67,269.57 C367.76,269.92 367.32,270.72 367.70,271.35 C368.08,272.00 367.67,271.92 366.76,271.19 C366.02,270.59 365.56,270.34 365.15,270.51 ZM 361.15 274.82 C361.79,274.32 362.90,273.13 364.21,271.61 C364.16,271.71 364.10,271.81 364.05,271.91 C363.24,273.43 362.32,274.38 361.15,274.82 ZM 371.34 257.23 C369.77,257.07 367.43,257.00 364.14,257.00 C367.41,257.00 369.77,257.04 371.34,257.23 ZM 358.21 275.00 C357.76,274.93 357.29,274.82 356.78,274.67 C356.75,274.66 356.72,274.65 356.70,274.64 C357.22,274.79 357.73,274.91 358.21,275.00 Z" fill="rgb(221,170,44)"/>
<path d="M 301.86 636.92 C302.42,637.42 302.88,637.79 304.16,638.08 C303.14,637.90 302.58,637.69 302.22,637.44 C301.00,636.59 299.99,636.25 299.97,636.69 C299.95,637.14 299.28,636.63 298.47,635.56 C297.19,633.87 296.70,634.52 297.23,636.21 C297.19,636.12 297.16,636.03 297.13,635.94 C296.40,633.86 296.08,597.72 296.01,506.00 L 299.70 506.00 L 368.17 506.24 C428.70,506.46 440.41,506.72 440.80,507.89 C441.05,508.65 440.80,509.00 440.24,508.65 C439.76,508.35 439.12,509.02 438.70,510.17 C438.58,510.17 438.40,510.25 438.15,510.40 C437.50,510.81 407.52,511.09 371.52,511.04 C306.67,510.94 306.05,510.95 304.00,513.00 C301.97,515.03 301.94,515.77 302.00,573.28 C302.03,605.30 302.05,632.54 302.03,633.81 C302.01,635.32 301.57,635.90 300.75,635.48 C300.06,635.13 300.56,635.78 301.86,636.92 ZM 729.00 370.00 L 729.00 437.80 C729.00,388.22 728.70,369.90 727.90,370.70 C727.30,371.30 726.73,372.93 726.65,374.30 C726.63,374.56 726.61,374.81 726.57,375.03 L 726.57 375.01 C726.57,373.67 726.14,373.38 725.04,373.94 C724.19,374.37 693.81,374.81 657.53,374.92 C621.24,375.03 591.32,375.35 591.03,375.64 C590.74,375.93 590.37,404.14 590.20,438.33 C589.94,494.08 589.54,503.91 587.61,501.93 C586.51,500.81 586.06,484.47 585.80,437.00 L 585.53 385.50 L 584.47 481.50 L 584.00 370.00 ZM 585.45 633.92 L 585.00 576.00 L 584.54 516.97 C584.69,513.63 584.87,512.00 585.08,512.00 C585.65,512.00 586.05,511.21 585.95,510.25 C585.70,507.86 585.70,506.36 586.15,505.33 C587.34,506.50 596.10,506.64 633.50,506.36 C654.28,506.21 683.34,506.07 699.26,506.04 C691.95,506.11 686.93,506.27 687.11,506.45 C687.36,506.69 695.96,506.97 706.22,507.06 C720.36,507.20 725.00,507.55 725.37,508.52 C725.64,509.23 725.59,510.07 725.26,510.40 C724.94,510.73 695.35,511.00 659.52,511.00 C604.80,511.00 594.07,511.23 592.44,512.42 C590.75,513.66 590.50,515.10 590.50,523.67 C590.50,529.08 590.38,557.27 590.25,586.32 C590.02,635.93 589.89,639.13 588.26,638.81 C587.27,638.62 586.22,637.17 585.84,635.49 C585.67,634.73 585.54,634.20 585.45,633.92 ZM 584.43 519.57 L 584.00 575.00 C583.72,609.84 583.28,639.00 583.00,639.91 C583.28,639.00 583.62,609.95 583.76,575.25 C583.88,547.21 584.10,528.95 584.43,519.57 ZM 438.37 512.40 C438.00,519.22 437.55,545.77 437.30,576.25 L 436.80 639.00 L 437.22 576.25 C437.43,544.57 437.93,517.44 438.37,512.40 ZM 301.94 641.41 C307.42,642.92 322.37,642.87 370.22,642.72 L 373.26 642.71 L 442.02 642.50 L 373.26 642.75 C311.17,642.98 304.95,642.93 301.94,641.41 ZM 296.00 467.26 C296.00,307.20 295.94,301.72 294.13,299.15 C294.45,299.60 294.71,300.10 294.93,301.15 C294.96,301.29 294.98,301.43 295.01,301.58 C295.95,307.04 296.00,325.29 296.00,403.90 ZM 590.00 508.94 C590.00,508.42 589.33,508.00 588.50,508.00 C586.95,508.00 586.51,509.18 587.64,510.31 C588.44,511.11 590.00,510.20 590.00,508.94 ZM 297.00 630.94 C297.00,632.07 297.45,633.00 298.00,633.00 C298.55,633.00 299.00,632.35 299.00,631.56 C299.00,630.77 298.55,629.84 298.00,629.50 C297.45,629.16 297.00,629.81 297.00,630.94 ZM 725.36 556.37 L 725.22 538.95 C725.12,526.75 725.19,519.16 725.48,514.69 C725.29,519.42 725.21,527.18 725.26,537.23 ZM 588.47 503.46 C588.85,503.32 589.27,503.18 589.75,503.05 C590.74,502.78 595.39,502.55 603.43,502.39 C595.41,502.61 590.89,502.94 588.47,503.46 ZM 728.06 507.07 C728.13,507.03 728.20,507.01 728.25,507.01 C728.45,507.01 728.62,513.53 728.76,524.17 C728.60,513.54 728.37,507.76 728.06,507.07 ZM 585.48 638.40 C585.74,640.13 586.31,640.61 587.75,640.82 L 585.50 640.50 ZM 725.99 546.00 C726.38,532.82 726.63,543.59 726.78,579.41 C726.64,544.32 726.37,533.09 726.00,546.00 L 725.43 565.50 L 725.43 564.76 ZM 726.29 509.63 C726.52,509.15 726.77,508.69 727.01,508.30 C727.00,508.38 727.00,508.47 727.00,508.56 C727.00,509.29 726.69,509.71 726.29,509.63 Z" fill="rgb(248,218,58)"/>
<path d="M 728.76 370.00 L 584.07 370.00 L 584.07 368.93 L 513.28 368.96 L 455.33 368.99 C455.93,368.98 456.51,368.96 457.07,368.93 L 513.00 368.74 L 583.50 368.50 L 584.01 231.03 L 721.88 230.92 L 728.50 236.84 ZM 587.00 301.06 C587.00,343.02 587.34,365.00 588.00,365.00 C588.66,365.00 589.00,342.81 589.00,300.44 C589.00,257.66 588.66,236.09 588.00,236.50 C587.35,236.90 587.00,259.51 587.00,301.06 ZM 296.01 506.00 L 296.01 506.00 C296.06,575.59 296.26,613.18 296.67,628.18 C296.19,614.93 296.04,582.48 296.01,506.00 ZM 416.58 231.23 L 396.28 231.27 L 396.18 231.17 L 422.83 231.15 L 419.24 231.20 ZM 373.47 642.76 C370.74,642.77 368.11,642.78 365.58,642.79 C349.03,642.85 336.67,642.90 327.38,642.84 C337.64,642.87 352.25,642.83 373.26,642.75 L 442.02 642.50 ZM 474.71 231.11 L 441.99 231.18 L 441.99 231.13 ZM 452.12 368.99 L 442.50 368.99 L 442.50 368.98 L 450.55 368.96 C451.03,368.97 451.55,368.98 452.12,368.99 ZM 584.38 460.34 L 584.47 480.45 L 584.45 481.50 ZM 729.00 506.00 L 729.00 494.94 L 729.02 506.00 Z" fill="rgb(253,81,97)"/>
<path d="M 442.26 505.74 L 442.50 368.99 L 442.70 441.25 C442.77,467.81 442.91,492.46 443.05,506.95 C444.31,506.32 468.41,506.00 513.50,506.00 L 584.00 506.00 L 584.00 509.00 C584.00,510.06 584.20,510.99 584.49,511.53 C584.66,511.83 584.85,512.00 585.06,512.00 L 585.08 512.00 C584.87,512.00 584.69,513.63 584.54,516.97 L 584.49 511.53 L 584.43 519.57 L 584.43 519.57 C584.10,528.95 583.88,547.21 583.76,575.25 C583.62,609.95 583.28,639.00 583.00,639.91 L 583.00 639.92 C582.32,641.85 583.32,642.74 596.65,643.11 C588.87,642.96 585.07,642.71 584.41,642.37 C583.12,641.70 581.67,641.59 580.87,642.10 C580.11,642.57 517.71,642.97 442.19,642.97 C432.61,642.97 423.68,642.98 415.35,642.98 C381.20,642.99 357.12,643.00 340.10,642.87 C347.25,642.86 355.66,642.83 365.58,642.79 C368.11,642.78 370.74,642.77 373.47,642.76 L 442.02 642.50 ZM 443.05 507.05 C443.12,514.18 443.20,518.82 443.26,520.00 C443.46,523.58 443.71,551.81 443.81,582.75 C443.92,613.69 444.34,638.99 444.75,638.98 C447.49,638.93 447.72,636.01 448.37,592.50 C449.26,532.51 449.64,526.04 452.15,527.59 C452.66,527.91 452.81,529.03 452.48,530.07 C452.14,531.12 452.58,532.98 453.44,534.21 C454.30,535.44 455.00,537.67 455.00,539.16 C455.00,540.66 455.45,542.16 456.00,542.50 C456.55,542.84 457.02,544.33 457.04,545.81 C457.12,550.51 459.65,558.50 461.07,558.50 C461.80,558.50 462.72,557.38 463.11,556.00 C463.75,553.69 463.81,553.75 463.90,556.75 C463.99,559.80 464.23,560.01 467.75,560.12 C471.38,560.23 471.41,560.26 468.50,560.88 C465.54,561.51 465.50,561.61 465.50,568.01 L 465.50 574.50 L 471.96 574.80 C475.52,574.97 478.98,575.57 479.67,576.14 C480.35,576.71 481.37,576.89 481.94,576.54 C483.31,575.69 517.45,575.93 522.49,576.82 C525.93,577.43 526.56,577.95 527.00,580.52 C527.50,583.45 527.63,583.51 534.35,583.80 C541.52,584.11 544.00,583.13 544.00,579.98 C544.00,577.77 545.95,577.00 551.52,577.00 C557.38,577.00 561.00,575.51 561.00,573.11 C561.00,569.94 562.10,568.00 563.91,568.00 C566.09,568.00 568.00,566.07 568.00,563.87 C568.00,561.89 570.92,560.65 573.36,561.58 C575.03,562.23 575.49,560.35 575.20,554.00 C575.13,552.62 575.32,552.06 575.62,552.75 C575.92,553.44 576.63,554.00 577.20,554.00 C577.86,554.00 578.06,551.71 577.76,547.75 C576.96,537.27 578.73,513.95 580.48,512.02 C581.32,511.10 582.00,509.82 582.00,509.17 C582.00,508.29 564.94,508.00 512.50,508.00 C468.08,508.00 444.32,507.68 443.05,507.05 ZM 587.00 301.06 C587.00,259.51 587.35,236.90 588.00,236.50 C588.66,236.09 589.00,257.66 589.00,300.44 C589.00,342.81 588.66,365.00 588.00,365.00 C587.34,365.00 587.00,343.02 587.00,301.06 ZM 297.88 637.77 C297.93,637.86 297.98,637.95 298.03,638.05 C298.35,638.65 298.62,639.18 298.97,639.64 C299.13,639.85 299.30,640.04 299.51,640.23 C298.95,639.87 298.61,639.47 298.37,639.02 C298.16,638.64 298.03,638.23 297.88,637.77 ZM 443.05 507.05 L 443.05 506.95 C443.02,506.96 443.00,506.98 443.00,507.00 C443.00,507.02 443.02,507.04 443.05,507.05 Z" fill="rgb(253,120,166)"/>
<path d="M 443.05 507.05 C444.32,507.68 468.08,508.00 512.50,508.00 C564.94,508.00 582.00,508.29 582.00,509.17 C582.00,509.82 581.32,511.10 580.48,512.02 C578.73,513.95 576.96,537.27 577.76,547.75 C578.06,551.71 577.86,554.00 577.20,554.00 C576.63,554.00 575.92,553.44 575.62,552.75 C575.32,552.06 575.13,552.62 575.20,554.00 C575.49,560.35 575.03,562.23 573.36,561.58 C570.92,560.65 568.00,561.89 568.00,563.87 C568.00,566.07 566.09,568.00 563.91,568.00 C562.10,568.00 561.00,569.94 561.00,573.11 C561.00,575.51 557.38,577.00 551.52,577.00 C545.95,577.00 544.00,577.77 544.00,579.98 C544.00,583.13 541.52,584.11 534.35,583.80 C527.63,583.51 527.50,583.45 527.00,580.52 C526.56,577.95 525.93,577.43 522.49,576.82 C517.45,575.93 483.31,575.69 481.94,576.54 C481.37,576.89 480.35,576.71 479.67,576.14 C478.98,575.57 475.52,574.97 471.96,574.80 L 465.50 574.50 L 465.50 568.01 C465.50,561.61 465.54,561.51 468.50,560.88 C471.41,560.26 471.38,560.23 467.75,560.12 C464.23,560.01 463.99,559.80 463.90,556.75 C463.81,553.75 463.75,553.69 463.11,556.00 C462.72,557.38 461.80,558.50 461.07,558.50 C459.65,558.50 457.12,550.51 457.04,545.81 C457.02,544.33 456.55,542.84 456.00,542.50 C455.45,542.16 455.00,540.66 455.00,539.16 C455.00,537.67 454.30,535.44 453.44,534.21 C452.58,532.98 452.14,531.12 452.48,530.07 C452.81,529.03 452.66,527.91 452.15,527.59 C449.64,526.04 449.26,532.51 448.37,592.50 C447.72,636.01 447.49,638.93 444.75,638.98 C444.34,638.99 443.92,613.69 443.81,582.75 C443.71,551.81 443.46,523.58 443.26,520.00 C443.20,518.82 443.12,514.18 443.05,507.05 C443.02,507.04 443.00,507.02 443.00,507.00 C443.00,506.98 443.02,506.96 443.05,506.95 L 443.04 506.00 L 512.99 506.00 C468.23,506.00 444.31,506.33 443.05,506.95 ZM 444.52 510.03 C444.96,510.74 446.42,510.97 448.25,510.60 C449.90,510.27 480.33,509.92 515.88,509.82 L 580.50 509.63 L 512.50 508.99 C475.10,508.63 444.34,508.46 444.15,508.60 C443.96,508.75 444.12,509.39 444.52,510.03 Z" fill="rgb(254,129,175)"/>
<path d="M 700.75 506.04 L 728.81 506.00 C728.81,513.58 728.81,520.82 728.81,527.73 C728.79,526.49 728.77,525.30 728.76,524.17 C728.62,513.53 728.45,507.01 728.25,507.01 C728.20,507.01 728.13,507.03 728.06,507.07 C728.04,507.02 728.02,507.00 728.00,507.00 C727.51,507.00 727.09,507.56 727.01,508.30 C726.77,508.69 726.52,509.15 726.29,509.63 C726.21,509.62 726.14,509.58 726.06,509.54 C725.81,509.38 725.61,511.21 725.48,514.69 C725.19,519.16 725.12,526.75 725.22,538.95 L 725.36 556.37 L 725.36 556.37 L 725.41 565.50 L 725.43 564.76 L 725.43 565.50 L 726.00 546.00 C726.36,533.42 726.62,543.76 726.77,576.74 C726.77,577.61 726.78,578.50 726.78,579.41 L 726.78 579.67 C726.95,620.89 727.18,632.92 728.11,635.44 C728.08,635.81 728.04,636.00 728.01,636.00 C727.45,636.00 727.00,636.51 727.00,637.13 C727.00,637.38 726.90,637.68 726.71,638.01 C726.78,637.63 726.55,637.34 726.06,637.03 C725.19,636.50 724.15,636.71 723.27,637.59 C722.08,638.77 711.31,639.00 655.93,639.00 C609.78,639.00 590.00,639.32 590.00,640.07 C590.00,640.66 588.99,641.00 587.75,640.82 C586.31,640.61 585.74,640.13 585.48,638.40 L 585.45 633.92 C585.54,634.20 585.67,634.73 585.84,635.49 C586.22,637.17 587.27,638.62 588.26,638.81 C589.89,639.13 590.02,635.93 590.25,586.32 C590.38,557.27 590.50,529.08 590.50,523.67 C590.50,515.10 590.75,513.66 592.44,512.42 C594.07,511.23 604.80,511.00 659.52,511.00 C695.35,511.00 724.94,510.73 725.26,510.40 C725.59,510.07 725.64,509.23 725.37,508.52 C725.00,507.55 720.36,507.20 706.22,507.06 C695.96,506.97 687.36,506.69 687.11,506.45 C686.93,506.27 691.95,506.11 699.26,506.04 C699.77,506.04 700.27,506.04 700.75,506.04 ZM 588.47 503.46 C586.61,503.86 586.00,504.36 586.00,504.99 C586.00,505.11 586.05,505.23 586.15,505.33 C585.70,506.36 585.70,507.86 585.95,510.25 C586.05,511.21 585.65,512.00 585.08,512.00 L 585.06 512.00 C584.85,512.00 584.66,511.83 584.49,511.53 L 584.49 511.50 L 584.49 511.53 C584.20,510.99 584.00,510.06 584.00,509.00 L 584.00 506.00 L 584.60 506.00 L 584.46 481.28 L 584.47 480.46 L 584.47 481.50 L 585.53 385.50 L 585.80 437.00 C586.06,484.47 586.51,500.81 587.61,501.93 C589.54,503.91 589.94,494.08 590.20,438.33 C590.37,404.14 590.74,375.93 591.03,375.64 C591.32,375.35 621.24,375.03 657.53,374.92 C693.81,374.81 724.19,374.37 725.04,373.94 C726.14,373.38 726.57,373.67 726.57,375.01 L 726.57 375.03 C726.41,375.99 726.08,376.55 725.75,376.35 C725.34,376.09 725.00,404.26 725.00,438.94 L 725.00 502.00 L 659.25 502.01 C631.79,502.01 614.36,502.09 603.43,502.39 C595.39,502.55 590.74,502.78 589.75,503.05 C589.27,503.18 588.85,503.32 588.47,503.46 ZM 301.86 636.92 C300.56,635.78 300.06,635.13 300.75,635.48 C301.57,635.90 302.01,635.32 302.03,633.81 C302.05,632.54 302.03,605.30 302.00,573.28 C301.94,515.77 301.97,515.03 304.00,513.00 C306.05,510.95 306.67,510.94 371.52,511.04 C407.52,511.09 437.50,510.81 438.15,510.40 C438.40,510.25 438.58,510.17 438.70,510.17 C438.63,510.35 438.57,510.55 438.52,510.76 C438.47,510.94 438.42,511.49 438.37,512.40 C437.93,517.44 437.43,544.57 437.22,576.25 L 436.80 639.00 L 370.62 639.00 C322.92,639.00 308.79,638.88 304.16,638.08 C302.88,637.79 302.42,637.42 301.86,636.92 ZM 680.80 609.80 C681.50,609.10 682.00,605.76 682.00,601.84 L 682.00 595.08 L 700.50 594.50 L 700.80 588.03 L 700.82 587.76 C701.07,582.25 701.20,579.57 699.92,578.25 C698.69,577.00 696.18,577.00 691.28,577.00 L 682.08 577.00 L 681.79 585.25 L 681.50 593.50 L 655.30 593.77 L 629.10 594.03 L 628.55 590.77 C628.25,588.97 627.89,585.25 627.75,582.50 L 627.50 577.50 L 619.71 577.21 L 611.92 576.91 L 612.21 585.21 L 612.50 593.50 L 620.75 593.79 L 629.00 594.08 L 629.00 601.87 C629.00,606.16 629.30,609.97 629.67,610.33 C630.94,611.61 679.50,611.10 680.80,609.80 ZM 681.80 560.80 C682.51,560.09 683.00,556.67 683.00,552.41 L 683.00 552.13 C683.00,548.44 683.00,546.42 682.00,545.32 C680.79,544.00 678.14,544.00 672.29,544.00 L 664.00 544.00 L 664.00 552.33 C664.00,556.92 664.30,560.97 664.67,561.33 C665.86,562.53 680.53,562.07 681.80,560.80 ZM 645.50 544.50 L 628.00 543.92 L 628.00 552.29 C628.00,556.90 628.32,560.98 628.70,561.37 C629.09,561.76 633.03,561.95 637.45,561.79 L 645.50 561.50 ZM 584.38 460.34 L 584.45 479.95 L 584.20 437.46 L 583.80 368.93 L 584.07 368.93 L 584.07 370.00 L 584.00 370.00 ZM 297.00 630.94 C297.00,629.81 297.45,629.16 298.00,629.50 C298.55,629.84 299.00,630.77 299.00,631.56 C299.00,632.35 298.55,633.00 298.00,633.00 C297.45,633.00 297.00,632.07 297.00,630.94 ZM 720.57 642.53 C721.38,642.34 722.66,641.69 723.80,640.91 C722.72,641.68 721.54,642.31 720.57,642.53 Z" fill="rgb(254,205,25)"/>
<path d="M 0.00 512.00 L 0.00 0.00 L 512.00 0.00 L 1024.00 0.00 L 1024.00 512.00 L 1024.00 1024.00 L 512.00 1024.00 L 0.00 1024.00 L 0.00 512.00 ZM 481.63 776.40 C485.53,774.79 489.00,772.26 489.00,771.03 C489.00,770.11 483.48,764.00 482.66,764.00 C482.29,764.00 479.66,765.12 476.81,766.50 C471.41,769.10 466.57,769.73 465.48,767.97 C465.13,767.41 464.32,767.01 463.67,767.09 C460.97,767.43 459.82,766.82 456.50,763.29 C452.99,759.57 451.92,756.07 454.25,755.92 C454.94,755.87 462.70,755.85 471.50,755.86 C480.30,755.87 488.35,755.63 489.39,755.33 C491.08,754.83 491.22,754.04 490.71,747.38 C490.32,742.13 489.48,738.90 487.85,736.24 C484.66,731.08 482.78,729.00 481.28,729.00 C480.57,729.00 480.00,728.52 480.00,727.94 C480.00,727.36 479.55,727.16 479.00,727.50 C478.45,727.84 478.00,727.61 478.00,726.99 C478.00,726.32 477.19,726.12 476.00,726.50 C474.90,726.85 474.00,726.72 474.00,726.20 C474.00,725.06 457.15,724.95 456.44,726.09 C456.16,726.54 455.28,726.66 454.47,726.35 C453.66,726.04 453.00,726.28 453.00,726.89 C453.00,727.50 452.35,728.00 451.56,728.00 C448.14,728.00 440.29,738.56 439.31,744.50 C438.19,751.26 440.28,763.11 443.23,766.75 C443.79,767.44 443.88,768.00 443.44,768.00 C441.34,768.00 449.94,774.22 454.42,775.94 C461.04,778.49 475.97,778.74 481.63,776.40 ZM 663.48 776.01 C668.17,774.00 671.03,771.83 670.97,770.32 C670.95,769.87 670.05,768.44 668.96,767.13 C666.91,764.67 666.70,764.67 658.50,767.00 C651.09,769.11 650.35,769.17 646.09,768.03 C641.36,766.75 635.00,760.95 635.00,757.91 C635.00,756.09 635.96,756.00 654.50,756.00 L 674.00 756.00 L 674.00 749.65 C674.00,746.16 673.49,741.77 672.86,739.90 C670.25,732.10 663.50,726.59 656.00,726.14 C654.08,726.03 652.35,725.50 652.17,724.97 C651.73,723.70 645.39,723.72 642.99,725.01 C641.95,725.56 639.84,726.10 638.30,726.21 C636.76,726.32 635.28,726.71 635.00,727.07 C634.72,727.44 632.59,728.70 630.25,729.89 C627.91,731.07 626.00,732.71 626.00,733.52 C626.00,734.33 625.58,735.00 625.07,735.00 C622.63,735.00 619.28,755.61 621.38,757.71 C621.72,758.05 622.00,759.09 622.00,760.02 C622.00,764.63 631.55,774.33 638.50,776.78 C643.90,778.69 658.27,778.24 663.48,776.01 ZM 717.71 775.45 C720.67,774.04 723.39,772.13 723.73,771.20 C724.07,770.26 724.79,769.21 725.31,768.86 C725.84,768.50 726.32,765.49 726.39,762.17 C726.49,756.57 726.25,755.86 723.09,752.60 C721.22,750.66 719.30,749.31 718.84,749.60 C718.38,749.88 718.00,749.61 718.00,749.00 C718.00,748.39 717.55,748.16 717.00,748.50 C716.45,748.84 716.00,748.59 716.00,747.95 C716.00,747.31 715.33,747.05 714.50,747.36 C713.67,747.68 713.00,747.59 713.00,747.17 C713.00,746.74 711.37,746.35 709.37,746.29 C707.37,746.24 705.40,745.64 704.98,744.97 C704.56,744.29 703.73,744.05 703.12,744.42 C702.52,744.80 700.81,743.98 699.33,742.60 C696.94,740.39 696.77,739.81 697.79,737.55 C698.83,735.28 699.54,735.00 704.32,735.00 C707.27,735.00 711.89,735.67 714.59,736.48 C720.73,738.34 722.74,737.73 723.86,733.69 C724.55,731.19 724.39,730.24 723.12,729.28 C722.23,728.62 721.05,727.70 720.50,727.24 C719.95,726.79 718.60,726.36 717.50,726.29 C701.80,725.28 696.98,725.22 696.47,726.04 C696.15,726.57 695.00,727.00 693.91,727.00 C690.95,727.00 685.11,732.86 684.03,736.92 C681.92,744.80 684.26,750.12 691.30,753.45 C694.27,754.85 697.26,756.00 697.94,756.00 C704.04,756.00 715.92,762.19 713.13,763.92 C712.42,764.36 711.89,765.06 711.97,765.48 C712.44,767.92 701.84,770.17 700.45,767.91 C700.08,767.31 698.93,767.05 697.89,767.32 C696.85,767.59 696.00,767.36 696.00,766.80 C696.00,766.24 695.33,766.05 694.50,766.36 C693.67,766.68 693.00,766.45 693.00,765.86 C693.00,765.27 692.33,765.05 691.50,765.36 C690.67,765.68 690.00,765.52 690.00,765.00 C690.00,763.89 687.00,764.89 685.30,766.58 C684.64,767.23 684.37,768.04 684.71,768.38 C685.05,768.72 684.88,769.00 684.33,769.00 C682.74,769.00 683.17,771.85 685.02,773.52 C687.89,776.12 695.14,777.80 703.90,777.90 C710.97,777.98 713.17,777.59 717.71,775.45 ZM 346.50 770.50 L 346.50 765.50 L 330.25 765.23 L 314.00 764.95 L 314.00 735.23 L 314.00 705.50 L 306.60 705.83 C299.98,706.12 299.13,706.38 298.61,708.33 C298.29,709.52 298.02,725.25 298.01,743.27 L 298.00 776.04 L 322.25 775.77 L 346.50 775.50 L 346.50 770.50 ZM 369.96 774.07 C370.59,772.90 371.00,763.36 371.00,750.04 L 371.00 727.95 L 368.38 726.96 C366.95,726.41 363.57,726.25 360.88,726.61 L 356.00 727.26 L 356.00 750.96 C356.00,764.00 356.30,774.97 356.67,775.33 C357.03,775.70 359.94,776.00 363.13,776.00 C367.84,776.00 369.12,775.64 369.96,774.07 ZM 417.88 771.75 C418.87,769.41 420.02,766.15 420.42,764.51 C420.83,762.87 421.46,761.29 421.83,761.01 C422.66,760.38 426.05,751.41 426.75,748.00 C427.04,746.62 427.75,744.90 428.33,744.16 C429.67,742.47 433.07,733.39 433.73,729.75 C434.20,727.12 434.05,727.00 430.20,727.00 C427.98,727.00 425.54,726.76 424.77,726.47 C424.01,726.17 422.33,726.85 421.04,727.97 C419.75,729.08 419.01,730.00 419.41,730.00 C419.80,730.00 419.76,730.56 419.32,731.25 C418.89,731.94 418.47,732.84 418.39,733.25 C418.31,733.66 418.14,734.22 418.00,734.50 C417.86,734.78 417.64,735.45 417.50,736.00 C417.36,736.55 417.14,737.22 417.00,737.50 C416.86,737.78 416.64,738.45 416.50,739.00 C416.36,739.55 416.16,740.11 416.05,740.25 C415.94,740.39 415.65,741.62 415.40,743.00 C415.15,744.38 414.53,745.64 414.03,745.81 C413.52,745.99 413.36,746.78 413.66,747.56 C413.97,748.35 413.64,749.00 412.94,749.00 C412.24,749.00 411.93,749.26 412.25,749.58 C413.11,750.44 409.53,760.32 408.20,760.77 C406.80,761.23 403.23,753.52 399.51,742.00 C397.99,737.33 396.09,732.04 395.27,730.25 C393.79,727.04 393.69,727.00 386.85,727.00 L 379.93 727.00 L 380.38 729.75 C380.63,731.26 380.87,732.61 380.92,732.75 C380.96,732.89 380.96,733.29 380.91,733.64 C380.87,733.99 381.31,734.57 381.89,734.93 C382.47,735.29 383.10,736.47 383.27,737.54 C383.45,738.62 384.15,740.51 384.83,741.75 C385.51,742.99 385.72,744.01 385.29,744.02 C384.85,744.02 385.02,744.36 385.65,744.77 C386.28,745.17 386.96,746.40 387.15,747.50 C387.34,748.60 387.86,749.77 388.30,750.09 C388.74,750.41 389.17,751.65 389.26,752.84 C389.35,754.03 389.71,755.00 390.05,755.00 C390.77,755.00 393.24,762.04 392.99,763.39 C392.90,763.88 393.27,764.55 393.81,764.89 C394.36,765.22 394.96,766.40 395.15,767.50 C395.34,768.60 395.79,769.72 396.15,770.00 C396.51,770.28 396.96,771.40 397.15,772.50 C397.69,775.58 398.87,775.97 407.79,775.98 L 416.07 776.00 L 417.88 771.75 ZM 534.00 746.50 L 534.00 717.00 L 543.88 717.00 C555.03,717.00 555.82,716.57 555.63,710.50 L 555.50 706.50 L 525.20 706.24 L 494.89 705.97 L 495.20 711.24 L 495.50 716.50 L 506.75 716.78 L 518.00 717.07 L 518.00 746.53 L 518.00 776.00 L 526.00 776.00 L 534.00 776.00 L 534.00 746.50 ZM 580.98 774.03 C581.66,772.77 581.94,764.01 581.77,749.78 L 581.50 727.50 L 574.25 727.21 L 567.00 726.91 L 567.00 751.46 L 567.00 776.00 L 573.46 776.00 C578.87,776.00 580.10,775.68 580.98,774.03 ZM 610.00 741.00 L 610.00 706.00 L 603.00 706.00 L 596.00 706.00 L 596.00 741.00 L 596.00 776.00 L 603.00 776.00 L 610.00 776.00 L 610.00 741.00 ZM 370.20 715.31 C375.54,710.19 372.72,702.31 365.19,701.30 C359.91,700.59 355.86,703.99 355.71,709.25 C355.48,717.27 364.30,720.96 370.20,715.31 ZM 580.08 715.08 C581.90,713.26 583.00,711.11 583.00,709.39 C583.00,706.47 579.57,702.00 577.33,702.00 C576.60,702.00 576.00,701.49 576.00,700.88 C576.00,699.03 570.20,700.71 567.60,703.31 C565.85,705.06 565.30,706.62 565.47,709.35 C565.97,717.58 574.31,720.85 580.08,715.08 ZM 720.57 642.53 C723.10,641.95 727.00,638.67 727.00,637.13 C727.00,636.51 727.45,636.00 728.01,636.00 C728.68,636.00 728.93,569.94 728.76,436.42 L 728.50 236.84 L 725.19 233.88 L 721.88 230.92 L 559.03 231.04 L 396.18 231.17 L 388.59 223.22 C380.87,215.14 374.65,211.07 364.00,207.11 C357.57,204.73 354.19,204.43 344.00,205.39 C332.52,206.46 323.44,208.91 316.21,212.88 C309.34,216.67 295.48,229.34 296.46,230.94 C296.78,231.45 296.54,232.17 295.93,232.54 C295.33,232.92 292.62,237.78 289.92,243.36 C287.22,248.94 284.95,252.82 284.88,252.00 C284.61,248.64 283.23,256.93 283.12,262.57 C283.00,268.49 284.57,279.51 285.82,281.50 C286.16,282.05 286.57,283.30 286.72,284.28 C287.06,286.46 291.58,295.54 294.13,299.15 C295.94,301.72 296.00,307.20 296.00,467.44 C296.00,608.32 296.21,633.57 297.42,636.47 C300.34,643.45 289.98,642.99 442.19,642.97 C517.71,642.97 580.11,642.57 580.87,642.10 C581.67,641.59 583.12,641.70 584.41,642.37 C585.98,643.18 605.01,643.43 652.54,643.25 C688.82,643.12 719.43,642.79 720.57,642.53 ZM 452.00 745.40 C452.00,742.40 455.09,737.28 457.60,736.14 C463.12,733.62 476.98,736.35 476.25,739.81 C476.11,740.47 476.45,741.00 477.00,741.00 C477.55,741.00 477.95,741.34 477.88,741.75 C477.82,742.16 477.85,742.72 477.96,743.00 C479.49,746.94 479.31,747.00 465.41,747.00 C453.79,747.00 452.00,746.79 452.00,745.40 ZM 637.67 747.24 C634.74,746.96 633.97,746.51 634.42,745.35 C634.74,744.52 635.00,743.28 635.00,742.61 C635.00,741.93 636.40,739.94 638.12,738.19 C640.84,735.40 641.90,735.00 646.50,735.00 C652.54,735.00 659.00,737.33 659.00,739.51 C659.00,740.33 659.40,741.00 659.88,741.00 C661.03,741.00 662.15,745.27 661.22,746.10 C660.32,746.90 642.83,747.75 637.67,747.24 ZM 444.52 510.03 C444.12,509.39 443.96,508.75 444.15,508.60 C444.34,508.46 475.10,508.63 512.50,508.99 L 580.50 509.63 L 515.88 509.82 C480.33,509.92 449.90,510.27 448.25,510.60 C446.42,510.97 444.96,510.74 444.52,510.03 ZM 442.24 437.50 L 442.50 368.99 L 513.15 368.96 L 583.80 368.93 L 584.20 437.46 L 584.60 506.00 L 513.29 506.00 L 441.99 506.00 L 442.24 437.50 ZM 336.00 298.04 C336.00,297.51 336.90,294.79 338.00,292.00 C339.10,289.21 340.00,286.04 340.00,284.96 C340.00,282.08 341.47,282.57 341.64,285.50 C341.72,286.88 341.27,288.01 340.64,288.02 C340.01,288.02 340.17,288.48 341.00,289.04 C342.29,289.90 342.20,290.29 340.37,291.84 C338.96,293.02 338.33,294.54 338.53,296.32 C338.73,298.10 338.35,299.00 337.41,299.00 C336.64,299.00 336.00,298.57 336.00,298.04 ZM 355.25 274.17 C351.87,272.91 350.18,272.81 347.00,273.65 C344.80,274.24 343.00,274.33 343.00,273.86 C343.00,273.39 339.65,273.00 335.57,273.00 C331.48,273.00 326.94,272.55 325.49,272.00 L 322.84 270.99 L 330.08 257.25 C334.06,249.69 338.81,240.66 340.65,237.19 C342.48,233.72 344.63,230.23 345.42,229.43 C347.53,227.32 358.02,226.46 360.33,228.21 C362.10,229.54 362.08,229.82 359.99,236.30 C358.80,240.00 357.67,243.80 357.49,244.76 C357.30,245.72 357.06,246.61 356.95,246.75 C356.84,246.89 356.64,247.45 356.50,248.00 C356.36,248.55 356.14,249.23 356.00,249.50 C355.86,249.77 355.64,250.45 355.50,251.00 C355.36,251.55 355.14,252.11 355.00,252.25 C354.86,252.39 354.64,253.51 354.51,254.75 C354.28,256.95 354.50,257.00 364.14,257.00 C371.36,257.00 374.00,257.33 373.99,258.25 C373.98,259.72 362.80,273.99 360.84,275.03 C360.10,275.43 357.59,275.04 355.25,274.17 ZM 284.33 262.50 C284.33,258.65 284.51,257.20 284.73,259.27 C284.95,261.35 284.94,264.50 284.72,266.27 C284.50,268.05 284.32,266.35 284.33,262.50 ZM 443.68 235.18 C442.75,235.00 442.00,234.44 442.00,233.93 C442.00,233.37 469.31,233.00 511.00,233.00 C555.69,233.00 580.00,233.35 580.00,233.99 C580.00,234.89 448.13,236.04 443.68,235.18 Z" fill="rgb(254,254,254)"/>
</g>
</svg>